<?xml version='1.0' encoding='utf-8'?>
<svg xmlns="http://www.w3.org/2000/svg" viewBox="0 0 367.39999 465.35999" height="465.35999" width="367.39999" id="svg2" version="1.1"><metadata id="metadata8"/><defs id="defs6"/><g transform="matrix(1.3333333,0,0,-1.3333333,0,465.36)" id="g10"><g transform="scale(0.1)" id="g12"><path id="path14" style="fill:#e7e7e6;fill-opacity:1;fill-rule:nonzero;stroke:none" d="M 1391.83,0 C 773.27,0 331.828,102.02 331.828,160 c 0,57.988 461.442,110 1080.002,110 618.55,0 1020,-52.012 1020,-110 0,-57.98 -421.45,-160 -1040,-160"/><path id="path16" style="fill:#e7e7e6;fill-opacity:1;fill-rule:nonzero;stroke:none" d="m 304.129,1370.2 c -2.5,29.31 -3.703,59 -3.703,88.91 0,590.69 478.804,1069.4 1069.404,1069.4 590.7,0 1069.4,-478.71 1069.4,-1069.4 0,-22.6 -0.7,-45 -2.21,-67.2 C 2183.03,1556.11 1806.73,1660 1386.83,1660 948.629,1660 557.828,1546.8 304.129,1370.2"/><path id="path18" style="fill:#313543;fill-opacity:1;fill-rule:nonzero;stroke:none" d="m 1369.86,388.27 c -591.426,0 -1070.88,479.441 -1070.88,1070.88 0,591.43 479.454,1070.88 1070.88,1070.88 591.44,0 1070.89,-479.45 1070.89,-1070.88 0,-591.439 -479.45,-1070.88 -1070.89,-1070.88 z m 0.87,2278.29 C 703.211,2667.03 161.984,2125.81 162.453,1458.28 162.918,801.941 712.652,252.191 1369,251.73 c 667.52,-0.468 1208.76,540.758 1208.28,1208.28 -0.46,656.35 -550.2,1206.09 -1206.55,1206.55"/><path id="path20" style="fill:#313543;fill-opacity:1;fill-rule:nonzero;stroke:none" d="m 1294.9,1459.15 c 0,41.43 33.59,75.02 75.03,75.02 41.44,0 75.02,-33.59 75.02,-75.02 0,-41.44 -33.58,-75.03 -75.02,-75.03 -41.44,0 -75.03,33.59 -75.03,75.03"/><path id="path22" style="fill:#313543;fill-opacity:1;fill-rule:nonzero;stroke:none" d="m 1384.88,1437.03 v 0 c 16.24,8.67 36.95,1.57 46.23,-15.85 L 1564.5,1250 c 9.3,-17.42 -10.36,-91.16 -26.6,-99.82 -16.24,-8.67 -85.78,15.2 -95.07,32.62 l -70.52,207 c -9.3,17.42 -3.67,38.56 12.57,47.23"/><path id="path24" style="fill:#313543;fill-opacity:1;fill-rule:nonzero;stroke:none" d="m 1426.05,1509.89 c 28.87,-29.71 28.2,-77.21 -1.52,-106.09 -29.71,-28.88 -77.21,-28.2 -106.09,1.52 -28.88,29.71 -28.2,77.21 1.51,106.09 29.72,28.88 77.22,28.19 106.1,-1.52"/><path id="path26" style="fill:#313543;fill-opacity:1;fill-rule:nonzero;stroke:none" d="m 1373.59,1490 v 0 c -20.1,0 -36.4,17.78 -36.4,39.69 l -22.45,432.49 c 0,21.92 38.75,64.17 58.85,64.17 20.09,0 58.24,-41.6 58.24,-63.53 l -21.86,-433.13 c 0,-21.91 -16.29,-39.69 -36.38,-39.69"/><path id="path28" style="fill:#ae2522;fill-opacity:1;fill-rule:nonzero;stroke:none" d="m 1482.68,1634.41 21.97,-15.75 -514.502,-717.898 -21.984,15.75 514.516,717.898"/><path id="path30" style="fill:#313543;fill-opacity:1;fill-rule:nonzero;stroke:none" d="m 649.422,1459.15 h 15 c 0.008,193.23 78.281,368.04 204.906,494.69 126.649,126.62 301.452,204.9 494.692,204.91 193.23,-0.01 368.04,-78.29 494.69,-204.91 126.62,-126.65 204.9,-301.46 204.9,-494.69 0,-193.24 -78.28,-368.04 -204.9,-494.689 -126.65,-126.629 -301.46,-204.91 -494.69,-204.91 -193.24,0 -368.043,78.281 -494.692,204.91 C 742.703,1091.11 664.43,1265.91 664.422,1459.15 h -15 -15 c 0.008,-402.95 326.644,-729.591 729.598,-729.599 402.95,0.008 729.58,326.649 729.59,729.599 -0.01,402.95 -326.64,729.59 -729.59,729.6 -402.954,-0.01 -729.59,-326.65 -729.598,-729.6 h 15"/><path id="path32" style="fill:#f8f9fc;fill-opacity:1;fill-rule:nonzero;stroke:none" d="m 1337.24,1459.15 c 0,18.02 14.61,32.62 32.62,32.62 18.03,0 32.64,-14.6 32.64,-32.62 0,-18.02 -14.61,-32.63 -32.64,-32.63 -18.01,0 -32.62,14.61 -32.62,32.63"/><path id="path34" style="fill:#313543;fill-opacity:1;fill-rule:nonzero;stroke:none" d="m 134.375,2078.12 c -207.4648,252.93 -170.6172,626.15 82.305,833.61 252.925,207.47 626.148,170.63 833.61,-82.3 L 134.375,2078.12"/><path id="path36" style="fill:#313543;fill-opacity:1;fill-rule:nonzero;stroke:none" d="m 1699.29,2819.19 c 203.44,256.18 576.02,298.93 832.21,95.49 256.17,-203.43 298.92,-576.03 95.48,-832.2 l -927.69,736.71"/><path id="path38" style="fill:#313543;fill-opacity:1;fill-rule:nonzero;stroke:none" d="m 2056.91,2300.6 c 16.07,-12.53 39.25,-9.65 51.77,6.43 l 500.85,642.83 c 12.52,16.07 9.65,39.26 -6.43,51.78 -16.08,12.52 -39.26,9.65 -51.78,-6.43 l -500.85,-642.83 c -12.52,-16.08 -9.64,-39.26 6.44,-51.78"/><path id="path40" style="fill:#313543;fill-opacity:1;fill-rule:nonzero;stroke:none" d="m 697.566,2310.76 c 15.61,13.1 17.641,36.37 4.539,51.98 l -523.894,624.19 c -13.102,15.61 -36.371,17.64 -51.984,4.54 -15.606,-13.09 -17.641,-36.37 -4.539,-51.98 L 645.582,2315.3 c 13.102,-15.61 36.379,-17.64 51.984,-4.54"/><path id="path42" style="fill:#313543;fill-opacity:1;fill-rule:nonzero;stroke:none" d="m 1781.83,439.648 253.03,-287.007 c 8.03,-12.672 24.82,-16.442 37.5,-8.422 l 33.36,21.133 c 12.68,8.019 16.45,24.808 8.42,37.488 l -113.41,358.262 -218.9,-121.454"/><path id="path44" style="fill:#313543;fill-opacity:1;fill-rule:nonzero;stroke:none" d="m 2545.41,2941.31 c -214.72,124.07 -355.8,243.42 -446.22,337.4 -129.51,134.61 -307.76,211.54 -494.77,211.54 h -469.81 c -191.411,0 -373.309,-80.73 -503.419,-220.73 C 525.188,3155.34 376.102,3021.53 207.227,2942.5 l 25.464,-54.33 c 179.875,84.44 333.207,223.09 442.45,340.5 118.98,128 285.004,201.58 459.469,201.58 h 469.81 c 170.5,0 333.16,-70.12 451.53,-193.14 94.45,-98.17 240.14,-221.05 459.44,-347.75 l 30.02,51.95"/><path id="path46" style="fill:#313543;fill-opacity:1;fill-rule:nonzero;stroke:none" d="m 1357.33,2832.24 -207.43,-43.72 c -36.01,-7.59 -71.35,15.45 -78.94,51.46 v 0 c -7.59,36 15.44,71.35 51.45,78.94 l 207.43,43.72 c 36,7.59 71.35,-15.44 78.94,-51.45 7.59,-36.01 -15.45,-71.35 -51.45,-78.95"/><path id="path48" style="fill:#313543;fill-opacity:1;fill-rule:nonzero;stroke:none" d="M 731.883,550 629.844,188.121 C 623.137,174.699 628.582,158.379 642,151.672 l 35.324,-17.652 c 13.426,-6.711 29.739,-1.27 36.446,12.152 L 951.828,437.75 731.883,550"/><path id="path50" style="fill:#313543;fill-opacity:1;fill-rule:nonzero;stroke:none" d="m 1402.78,2212.65 h -48.6 v 275.4 h 48.6 v -275.4"/><path id="path52" style="fill:#313543;fill-opacity:1;fill-rule:nonzero;stroke:none" d="m 1019.22,2129.41 -42.083,-24.3 -137.703,238.5 42.086,24.3 137.7,-238.5"/><path id="path54" style="fill:#313543;fill-opacity:1;fill-rule:nonzero;stroke:none" d="m 728.672,1865.54 -24.301,-42.09 -238.504,137.7 24.301,42.09 238.504,-137.7"/><path id="path56" style="fill:#313543;fill-opacity:1;fill-rule:nonzero;stroke:none" d="m 608.98,1491.75 v -48.6 H 333.582 v 48.6 H 608.98"/><path id="path58" style="fill:#313543;fill-opacity:1;fill-rule:nonzero;stroke:none" d="m 692.223,1108.19 24.297,-42.08 -238.5,-137.712 -24.301,42.09 238.504,137.702"/><path id="path60" style="fill:#313543;fill-opacity:1;fill-rule:nonzero;stroke:none" d="m 956.09,817.641 42.09,-24.301 -137.7,-238.5 -42.089,24.301 137.699,238.5"/><path id="path62" style="fill:#313543;fill-opacity:1;fill-rule:nonzero;stroke:none" d="m 1329.88,697.949 h 48.6 V 422.551 h -48.6 v 275.398"/><path id="path64" style="fill:#313543;fill-opacity:1;fill-rule:nonzero;stroke:none" d="m 1713.44,781.191 42.09,24.297 137.69,-238.496 -42.08,-24.301 -137.7,238.5"/><path id="path66" style="fill:#313543;fill-opacity:1;fill-rule:nonzero;stroke:none" d="m 2003.99,1045.06 24.3,42.08 238.51,-137.691 -24.31,-42.09 -238.5,137.701"/><path id="path68" style="fill:#313543;fill-opacity:1;fill-rule:nonzero;stroke:none" d="m 2123.68,1418.85 v 48.6 h 275.4 v -48.6 h -275.4"/><path id="path70" style="fill:#313543;fill-opacity:1;fill-rule:nonzero;stroke:none" d="m 2040.44,1802.41 -24.3,42.09 238.5,137.7 24.31,-42.09 -238.51,-137.7"/><path id="path72" style="fill:#313543;fill-opacity:1;fill-rule:nonzero;stroke:none" d="m 1776.57,2092.96 -42.09,24.3 137.7,238.5 42.09,-24.3 -137.7,-238.5"/><path id="path74" style="fill:#313543;fill-opacity:1;fill-rule:nonzero;stroke:none" d="m 1295.9,2323 -16.11,-1.7 -16.09,153.06 16.11,1.69 16.09,-153.05"/><path id="path76" style="fill:#313543;fill-opacity:1;fill-rule:nonzero;stroke:none" d="m 1206.03,2310.48 -15.85,-3.37 -31.99,150.54 15.84,3.37 32,-150.54"/><path id="path78" style="fill:#313543;fill-opacity:1;fill-rule:nonzero;stroke:none" d="m 1117.96,2288.64 -15.4,-5.01 -47.56,146.37 15.41,5 47.55,-146.36"/><path id="path80" style="fill:#313543;fill-opacity:1;fill-rule:nonzero;stroke:none" d="m 1032.66,2257.71 -14.8,-6.59 -62.594,140.59 14.8,6.6 62.594,-140.6"/><path id="path82" style="fill:#313543;fill-opacity:1;fill-rule:nonzero;stroke:none" d="m 874.055,2170.05 -13.106,-9.52 -90.465,124.5 13.11,9.53 90.461,-124.51"/><path id="path84" style="fill:#313543;fill-opacity:1;fill-rule:nonzero;stroke:none" d="m 802.48,2114.27 -12.035,-10.84 -102.976,114.37 12.035,10.84 102.976,-114.37"/><path id="path86" style="fill:#313543;fill-opacity:1;fill-rule:nonzero;stroke:none" d="m 737.137,2051.32 -10.84,-12.03 -114.371,102.98 10.84,12.04 114.371,-102.99"/><path id="path88" style="fill:#313543;fill-opacity:1;fill-rule:nonzero;stroke:none" d="m 678.727,1981.89 -9.52,-13.11 -124.508,90.46 9.52,13.11 124.508,-90.46"/><path id="path90" style="fill:#313543;fill-opacity:1;fill-rule:nonzero;stroke:none" d="m 585.203,1826.67 -6.594,-14.8 -140.593,62.6 6.589,14.8 140.598,-62.6"/><path id="path92" style="fill:#313543;fill-opacity:1;fill-rule:nonzero;stroke:none" d="m 551.105,1742.58 -5.003,-15.4 -146.368,47.55 5.004,15.41 146.367,-47.56"/><path id="path94" style="fill:#313543;fill-opacity:1;fill-rule:nonzero;stroke:none" d="m 525.988,1655.4 -3.371,-15.85 -150.535,32 3.367,15.84 150.539,-31.99"/><path id="path96" style="fill:#313543;fill-opacity:1;fill-rule:nonzero;stroke:none" d="m 510.125,1566.06 -1.695,-16.11 -153.059,16.08 1.695,16.11 153.059,-16.08"/><path id="path98" style="fill:#313543;fill-opacity:1;fill-rule:nonzero;stroke:none" d="m 506.734,1384.87 1.696,-16.12 -153.059,-16.08 -1.691,16.11 153.054,16.09"/><path id="path100" style="fill:#313543;fill-opacity:1;fill-rule:nonzero;stroke:none" d="m 519.25,1295 3.367,-15.84 -150.535,-32.01 -3.363,15.85 150.531,32"/><path id="path102" style="fill:#313543;fill-opacity:1;fill-rule:nonzero;stroke:none" d="m 541.094,1206.93 5.008,-15.4 -146.368,-47.56 -5.007,15.41 146.367,47.55"/><path id="path104" style="fill:#313543;fill-opacity:1;fill-rule:nonzero;stroke:none" d="m 572.023,1121.64 6.586,-14.81 -140.593,-62.6 -6.59,14.81 140.597,62.6"/><path id="path106" style="fill:#313543;fill-opacity:1;fill-rule:nonzero;stroke:none" d="m 659.684,963.02 9.523,-13.098 -124.508,-90.461 -9.523,13.098 124.508,90.461"/><path id="path108" style="fill:#313543;fill-opacity:1;fill-rule:nonzero;stroke:none" d="m 715.457,891.449 10.84,-12.027 -114.371,-102.981 -10.84,12.028 114.371,102.98"/><path id="path110" style="fill:#313543;fill-opacity:1;fill-rule:nonzero;stroke:none" d="M 778.406,826.109 790.445,815.27 687.469,700.891 675.426,711.73 778.406,826.109"/><path id="path112" style="fill:#313543;fill-opacity:1;fill-rule:nonzero;stroke:none" d="m 847.844,767.699 13.105,-9.519 -90.465,-124.508 -13.105,9.519 90.465,124.508"/><path id="path114" style="fill:#313543;fill-opacity:1;fill-rule:nonzero;stroke:none" d="m 1003.06,674.16 14.8,-6.578 -62.594,-140.59 -14.801,6.59 62.595,140.578"/><path id="path116" style="fill:#313543;fill-opacity:1;fill-rule:nonzero;stroke:none" d="m 1087.15,640.07 15.41,-5 -47.56,-146.359 -15.41,5 47.56,146.359"/><path id="path118" style="fill:#313543;fill-opacity:1;fill-rule:nonzero;stroke:none" d="m 1174.34,614.961 15.84,-3.371 -31.99,-150.539 -15.85,3.371 32,150.539"/><path id="path120" style="fill:#313543;fill-opacity:1;fill-rule:nonzero;stroke:none" d="m 1263.67,599.102 16.12,-1.704 -16.09,-153.058 -16.11,1.691 16.08,153.071"/><path id="path122" style="fill:#313543;fill-opacity:1;fill-rule:nonzero;stroke:none" d="m 1444.86,595.711 16.12,1.687 16.08,-153.058 -16.11,-1.692 -16.09,153.063"/><path id="path124" style="fill:#313543;fill-opacity:1;fill-rule:nonzero;stroke:none" d="m 1534.73,608.219 15.85,3.371 32,-150.539 -15.85,-3.371 -32,150.539"/><path id="path126" style="fill:#313543;fill-opacity:1;fill-rule:nonzero;stroke:none" d="m 1622.79,630.059 15.41,5.011 47.56,-146.359 -15.41,-5.012 -47.56,146.36"/><path id="path128" style="fill:#313543;fill-opacity:1;fill-rule:nonzero;stroke:none" d="m 1708.1,660.988 14.8,6.594 62.6,-140.59 -14.81,-6.594 -62.59,140.59"/><path id="path130" style="fill:#313543;fill-opacity:1;fill-rule:nonzero;stroke:none" d="m 1866.71,748.66 13.11,9.52 90.45,-124.508 -13.1,-9.524 -90.46,124.512"/><path id="path132" style="fill:#313543;fill-opacity:1;fill-rule:nonzero;stroke:none" d="m 1938.27,804.43 12.04,10.84 102.98,-114.379 -12.03,-10.84 -102.99,114.379"/><path id="path134" style="fill:#313543;fill-opacity:1;fill-rule:nonzero;stroke:none" d="m 2003.62,867.379 10.84,12.043 114.38,-102.981 -10.84,-12.043 -114.38,102.981"/><path id="path136" style="fill:#313543;fill-opacity:1;fill-rule:nonzero;stroke:none" d="m 2062.03,936.809 9.52,13.113 124.52,-90.461 -9.53,-13.109 -124.51,90.457"/><path id="path138" style="fill:#313543;fill-opacity:1;fill-rule:nonzero;stroke:none" d="m 2155.56,1092.04 6.59,14.79 140.6,-62.6 -6.6,-14.79 -140.59,62.6"/><path id="path140" style="fill:#313543;fill-opacity:1;fill-rule:nonzero;stroke:none" d="m 2189.66,1176.12 5,15.41 146.37,-47.56 -5,-15.41 -146.37,47.56"/><path id="path142" style="fill:#313543;fill-opacity:1;fill-rule:nonzero;stroke:none" d="m 2214.78,1263.31 3.37,15.85 150.53,-32.01 -3.37,-15.84 -150.53,32"/><path id="path144" style="fill:#313543;fill-opacity:1;fill-rule:nonzero;stroke:none" d="m 2230.64,1352.64 1.7,16.11 153.05,-16.08 -1.7,-16.11 -153.05,16.08"/><path id="path146" style="fill:#313543;fill-opacity:1;fill-rule:nonzero;stroke:none" d="m 2234.02,1533.83 -1.68,16.12 153.05,16.08 1.69,-16.11 -153.06,-16.09"/><path id="path148" style="fill:#313543;fill-opacity:1;fill-rule:nonzero;stroke:none" d="m 2221.51,1623.7 -3.36,15.85 150.53,32 3.36,-15.85 -150.53,-32"/><path id="path150" style="fill:#313543;fill-opacity:1;fill-rule:nonzero;stroke:none" d="m 2199.67,1711.77 -5.01,15.41 146.37,47.55 5.01,-15.4 -146.37,-47.56"/><path id="path152" style="fill:#313543;fill-opacity:1;fill-rule:nonzero;stroke:none" d="m 2168.74,1797.07 -6.59,14.8 140.6,62.6 6.59,-14.8 -140.6,-62.6"/><path id="path154" style="fill:#313543;fill-opacity:1;fill-rule:nonzero;stroke:none" d="m 2081.08,1955.68 -9.53,13.1 124.52,90.46 9.52,-13.1 -124.51,-90.46"/><path id="path156" style="fill:#313543;fill-opacity:1;fill-rule:nonzero;stroke:none" d="m 2025.3,2027.25 -10.84,12.04 114.38,102.98 10.84,-12.05 -114.38,-102.97"/><path id="path158" style="fill:#313543;fill-opacity:1;fill-rule:nonzero;stroke:none" d="m 1962.36,2092.59 -12.05,10.84 102.98,114.37 12.04,-10.84 -102.97,-114.37"/><path id="path160" style="fill:#313543;fill-opacity:1;fill-rule:nonzero;stroke:none" d="m 1892.92,2151.01 -13.1,9.52 90.45,124.5 13.11,-9.52 -90.46,-124.5"/><path id="path162" style="fill:#313543;fill-opacity:1;fill-rule:nonzero;stroke:none" d="m 1737.7,2244.53 -14.8,6.59 62.6,140.59 14.79,-6.58 -62.59,-140.6"/><path id="path164" style="fill:#313543;fill-opacity:1;fill-rule:nonzero;stroke:none" d="m 1653.61,2278.63 -15.41,5 47.56,146.37 15.41,-5 -47.56,-146.37"/><path id="path166" style="fill:#313543;fill-opacity:1;fill-rule:nonzero;stroke:none" d="m 1566.43,2303.75 -15.85,3.36 32,150.54 15.84,-3.37 -31.99,-150.53"/><path id="path168" style="fill:#313543;fill-opacity:1;fill-rule:nonzero;stroke:none" d="m 1477.09,2319.61 -16.11,1.69 16.08,153.06 16.12,-1.69 -16.09,-153.06"/><path id="path170" style="fill:#2c303c;fill-opacity:1;fill-rule:nonzero;stroke:none" d="M 134.375,2078.12 C 44.0156,2188.28 0,2321.26 0,2453.43 c -0.00390625,154.11 59.8438,307.12 175.832,421.55 l 379.18,-451.77 -420.637,-345.09"/><path id="path172" style="fill:#2c303c;fill-opacity:1;fill-rule:nonzero;stroke:none" d="m 555.012,2423.21 -379.18,451.77 c 12.922,12.75 26.539,25.02 40.848,36.75 l 12.144,-15.31 3.867,-8.25 c 0.649,0.3 1.297,0.61 1.946,0.92 l 350.043,-441.54 -29.668,-24.34"/><path id="path174" style="fill:#2c303c;fill-opacity:1;fill-rule:nonzero;stroke:none" d="m 232.691,2888.17 -3.867,8.25 5.813,-7.33 c -0.649,-0.31 -1.297,-0.62 -1.946,-0.92"/><path id="path176" style="fill:#e7e7e6;fill-opacity:1;fill-rule:nonzero;stroke:none" d="m 2616.87,2082.78 -382.47,311.46 386.27,-306.75 c -1.26,-1.57 -2.53,-3.15 -3.8,-4.71 m -25.34,777.21 c -9.47,9.89 -19.3,19.47 -29.57,28.81 l 0.35,0.45 c 10.15,-9.48 19.88,-19.23 29.22,-29.26"/><path id="path178" style="fill:#2c303c;fill-opacity:1;fill-rule:nonzero;stroke:none" d="m 2620.67,2087.49 -386.27,306.75 -35.34,28.78 362.9,465.78 c 10.27,-9.34 20.1,-18.92 29.57,-28.81 197.05,-211.57 214.1,-540.62 29.14,-772.5"/><path id="path180" style="fill:#2c303c;fill-opacity:1;fill-rule:nonzero;stroke:none" d="m 2199.06,2423.02 -33.83,27.55 346.8,440.73 c 1.12,-0.65 2.24,-1.29 3.36,-1.94 l 13.53,23.4 2.61,3.33 c 10.64,-8.66 20.9,-17.62 30.78,-26.84 l -0.35,-0.45 -362.9,-465.78"/><path id="path182" style="fill:#2c303c;fill-opacity:1;fill-rule:nonzero;stroke:none" d="m 2515.39,2889.36 c -1.12,0.65 -2.24,1.29 -3.36,1.94 l 16.89,21.46 -13.53,-23.4"/><path id="path184" style="fill:#313543;fill-opacity:1;fill-rule:nonzero;stroke:none" d="m 1348.43,2629.31 -107.65,-22.65 -49.47,235.2 107.64,22.64 49.48,-235.19"/></g></g></svg>