<?xml version='1.0' encoding='utf-8'?>
<svg xmlns:xlink="http://www.w3.org/1999/xlink" xmlns="http://www.w3.org/2000/svg" width="210mm" height="297mm" viewBox="0 0 744.09448819 1052.3622047" id="svg2" version="1.1"> <defs id="defs4"> <linearGradient id="linearGradient4447"> <stop style="stop-color:#ffffff;stop-opacity:1" offset="0" id="stop4449"/> </linearGradient> <linearGradient id="linearGradient4199"> <stop id="stop4201" offset="0" style="stop-color:#f9f9f9;stop-opacity:1"/> <stop id="stop4203" offset="1" style="stop-color:#e8f9fc;stop-opacity:1"/> </linearGradient> <linearGradient id="linearGradient4183"> <stop style="stop-color:#f2f2f2;stop-opacity:1;" offset="0" id="stop4185"/> <stop style="stop-color:#e8f9fc;stop-opacity:1" offset="1" id="stop4187"/> </linearGradient> <linearGradient id="linearGradient4161"> <stop style="stop-color:#d4aa00;stop-opacity:1;" offset="0" id="stop4163"/> <stop style="stop-color:#a98800;stop-opacity:1" offset="1" id="stop4165"/> </linearGradient> <linearGradient id="linearGradient4153"> <stop style="stop-color:#ffcc00;stop-opacity:1;" offset="0" id="stop4155"/> <stop style="stop-color:#daae00;stop-opacity:1" offset="1" id="stop4157"/> </linearGradient> <linearGradient xlink:href="#linearGradient4161" id="linearGradient4177" gradientUnits="userSpaceOnUse" x1="378.4664" y1="108.71629" x2="378.4664" y2="332.71936" gradientTransform="matrix(1.5341676,0,0,1.5510976,-7.9842049,445.03801)"/> <linearGradient xlink:href="#linearGradient4153" id="linearGradient4179" gradientUnits="userSpaceOnUse" x1="267.63467" y1="83.267731" x2="267.63467" y2="331.64761" gradientTransform="matrix(1.5412333,0,-0.16635414,1.5422332,-56.355927,442.49464)"/> <linearGradient xlink:href="#linearGradient4183" id="linearGradient4189" x1="147.54243" y1="551.83165" x2="480.58675" y2="551.83165" gradientUnits="userSpaceOnUse" gradientTransform="matrix(1.5412333,0,0,1.7667958,7.6357643,-212.3118)"/> <linearGradient xlink:href="#linearGradient4183" id="linearGradient4193" gradientUnits="userSpaceOnUse" gradientTransform="matrix(1.5412333,0,0,1.7606841,-28.774201,-220.56026)" x1="147.54243" y1="551.83165" x2="480.58675" y2="551.83165"/> <linearGradient xlink:href="#linearGradient4199" id="linearGradient4197" gradientUnits="userSpaceOnUse" gradientTransform="matrix(1.5412333,0,0,1.7557796,-93.35654,-233.96689)" x1="147.54243" y1="551.83165" x2="480.58675" y2="551.83165"/> <filter style="color-interpolation-filters:sRGB" id="filter4346" x="-0.049650008" width="1.0993" y="-0.075534778" height="1.1510696"> <feGaussianBlur stdDeviation="7.2287515" id="feGaussianBlur4348"/> </filter> <clipPath clipPathUnits="userSpaceOnUse" id="clipPath4359"> <rect transform="matrix(1,0,-0.1115681,0.99375679,0,0)" y="457.66809" x="215.18581" height="230.48062" width="331.3085" id="rect4361" style="opacity:1;fill:url(#linearGradient4363);fill-opacity:1;stroke:none;stroke-width:1.73582017;stroke-miterlimit:4;stroke-dasharray:none"/> </clipPath> <linearGradient xlink:href="#linearGradient4183" id="linearGradient4363" gradientUnits="userSpaceOnUse" gradientTransform="matrix(1,0,0,1.145618,66.77545,-59.279811)" x1="147.54243" y1="551.83165" x2="480.58675" y2="551.83165"/> <filter style="color-interpolation-filters:sRGB" id="filter4383" x="-0.050739735" width="1.1014795" y="-0.073394961" height="1.1467899"> <feGaussianBlur stdDeviation="7.0043774" id="feGaussianBlur4385"/> </filter> <clipPath clipPathUnits="userSpaceOnUse" id="clipPath4389"> <rect style="opacity:1;fill:url(#linearGradient4393);fill-opacity:1;stroke:none;stroke-width:1.73582017;stroke-miterlimit:4;stroke-dasharray:none" id="rect4391" width="331.3085" height="229.68233" x="188.64674" y="450.2583" transform="matrix(1,0,-0.07463725,0.99721075,0,0)"/> </clipPath> <linearGradient xlink:href="#linearGradient4183" id="linearGradient4393" gradientUnits="userSpaceOnUse" gradientTransform="matrix(1,0,0,1.14165,40.23639,-64.899111)" x1="147.54243" y1="551.83165" x2="480.58675" y2="551.83165"/> <filter style="color-interpolation-filters:sRGB" id="filter4425" x="-0.068032147" width="1.1360643" y="-0.10976237" height="1.2195247"> <feGaussianBlur stdDeviation="11.041623" id="feGaussianBlur4427"/> </filter> <clipPath clipPathUnits="userSpaceOnUse" id="clipPath4431"> <rect y="439.91104" x="140.91344" height="229.04169" width="331.3085" id="rect4433" style="opacity:1;fill:url(#linearGradient4435);fill-opacity:1;stroke:none;stroke-width:1.73582017;stroke-miterlimit:4;stroke-dasharray:none"/> </clipPath> <linearGradient xlink:href="#linearGradient4199" id="linearGradient4435" gradientUnits="userSpaceOnUse" gradientTransform="matrix(1,0,0,1.1384657,-7.4969187,-73.809464)" x1="147.54243" y1="551.83165" x2="480.58675" y2="551.83165"/> <radialGradient xlink:href="#linearGradient4447" id="radialGradient4453" cx="360.82104" cy="524.34241" fx="360.82104" fy="524.34241" r="194.76009" gradientTransform="matrix(3.4348196,-2.2930847e-7,1.2444853e-7,1.8665384,-752.8869,-257.09097)" gradientUnits="userSpaceOnUse"/> <clipPath clipPathUnits="userSpaceOnUse" id="clipPath4487"> <rect transform="matrix(1,0,0.0043062,0.99999073,0,0)" style="opacity:1;fill:url(#linearGradient4491);fill-opacity:1" id="rect4489" width="335.86325" height="223.54053" x="219.40125" y="483.37589" ry="18.416637" rx="18.571428"/> </clipPath> <linearGradient xlink:href="#linearGradient4161" id="linearGradient4491" gradientUnits="userSpaceOnUse" gradientTransform="matrix(1,0,0,1.0062918,62.795045,371.02549)" x1="378.4664" y1="108.71629" x2="378.4664" y2="332.71936"/> <linearGradient xlink:href="#linearGradient4161" id="linearGradient4237" gradientUnits="userSpaceOnUse" gradientTransform="matrix(1.5341676,0,0,1.5510976,-63.663867,-76.514049)" x1="378.4664" y1="108.71629" x2="378.4664" y2="332.71936"/> <linearGradient xlink:href="#linearGradient4153" id="linearGradient4245" gradientUnits="userSpaceOnUse" gradientTransform="matrix(1.5412333,0,-0.16635414,1.5422332,-56.355927,-76.076785)" x1="267.63467" y1="83.267731" x2="267.63467" y2="331.64761"/> <radialGradient xlink:href="#linearGradient4447" id="radialGradient4247" gradientUnits="userSpaceOnUse" gradientTransform="matrix(3.4348196,-2.2930847e-7,1.2444853e-7,1.8665384,-752.8869,-775.6624)" cx="360.82104" cy="524.34241" fx="360.82104" fy="524.34241" r="194.76009"/> </defs> <metadata id="metadata7"> </metadata> <g id="layer1"> <rect rx="18.571428" ry="18.416628" y="618.21484" x="232.27597" height="344.56525" width="515.27051" id="rect4169" style="opacity:1;fill:url(#linearGradient4177);fill-opacity:1" transform="matrix(1,0,-0.10675763,0.99428507,0,0)"/> <path style="color:#000000;font-style:normal;font-variant:normal;font-weight:normal;font-stretch:normal;font-size:medium;line-height:normal;font-family:sans-serif;text-indent:0;text-align:start;text-decoration:none;text-decoration-line:none;text-decoration-style:solid;text-decoration-color:#000000;letter-spacing:normal;word-spacing:normal;text-transform:none;direction:ltr;block-progression:tb;writing-mode:lr-tb;baseline-shift:baseline;text-anchor:start;white-space:normal;clip-rule:nonzero;display:inline;overflow:visible;visibility:visible;opacity:1;isolation:auto;mix-blend-mode:normal;color-interpolation:sRGB;color-interpolation-filters:linearRGB;solid-color:#000000;solid-opacity:1;fill:#aa8800;fill-opacity:1;fill-rule:nonzero;stroke:none;stroke-width:1.9055028;stroke-linecap:butt;stroke-linejoin:miter;stroke-miterlimit:4;stroke-dasharray:none;stroke-dashoffset:0;stroke-opacity:1;color-rendering:auto;image-rendering:auto;shape-rendering:auto;text-rendering:auto;enable-background:accumulate" d="m 184.89941,613.73484 c -10.7538,0 -20.37383,8.60079 -21.51886,19.25743 l -32.8763,305.97514 c -1.14503,10.65664 6.62674,19.25743 17.38054,19.25743 l 478.63733,0 c 10.7538,0 20.37384,-8.60079 21.51887,-19.25743 l 32.8763,-305.97514 c 1.14502,-10.65664 -6.62674,-19.25743 -17.38054,-19.25743 l -478.63734,0 z m -0.20343,1.89331 478.63734,0 c 9.74357,0 16.71996,7.73282 15.68511,17.36412 l -32.8763,305.97514 c -1.03486,9.63131 -9.673,17.36412 -19.41657,17.36412 l -478.63734,0 c -9.74357,0 -16.71997,-7.73281 -15.68511,-17.36412 l 32.8763,-305.97514 c 1.03486,-9.6313 9.673,-17.36412 19.41657,-17.36412 z" id="rect4171"/> <rect style="opacity:1;fill:url(#linearGradient4189);fill-opacity:1;stroke:none;stroke-width:1.73582017;stroke-miterlimit:4;stroke-dasharray:none" id="rect4181" width="510.62369" height="355.452" x="236.37076" y="584.93604" transform="matrix(1,0,-0.11149667,0.99376481,0,0)"/> <path style="opacity:0.26800005;fill:#000000;fill-opacity:1;stroke:none;stroke-width:1.73582017;stroke-miterlimit:4;stroke-dasharray:none;filter:url(#filter4346)" d="m 164.125,454.81055 -25.0625,223.23437 330.14453,0 16.70703,-223.23437 -321.78906,0 z" id="rect4328" clip-path="url(#clipPath4359)" transform="matrix(1.5412333,0,0,1.5422332,-81.802037,-120.13548)"/> <rect transform="matrix(1,0,-0.07458913,0.99721435,0,0)" y="573.92981" x="199.96078" height="354.22241" width="510.62369" id="rect4191" style="opacity:1;fill:url(#linearGradient4193);fill-opacity:1;stroke:none;stroke-width:1.73582017;stroke-miterlimit:4;stroke-dasharray:none"/> <rect y="439.91104" x="140.91344" height="229.04169" width="331.3085" id="rect4365" style="opacity:0.21100003;fill:#000000;fill-opacity:1;stroke:none;stroke-width:1.73582017;stroke-miterlimit:4;stroke-dasharray:none;filter:url(#filter4383)" clip-path="url(#clipPath4389)" transform="matrix(1.5412333,0,0,1.5422332,-81.802037,-120.13548)"/> <rect style="opacity:1;fill:url(#linearGradient4197);fill-opacity:1;stroke:none;stroke-width:1.73582017;stroke-miterlimit:4;stroke-dasharray:none" id="rect4195" width="510.62369" height="353.23569" x="135.37845" y="558.30994"/> <path style="opacity:0.24600004;fill:#000000;fill-opacity:1;filter:url(#filter4425)" d="m 142.11172,461.06701 c -10.28857,0 -17.2448,8.28369 -15.59848,18.57226 l 0.11438,0.71485 -19.28515,0 c -10.288583,0 -17.247084,8.28174 -15.600774,18.57031 l 29.602494,185 c 1.64631,10.28857 11.25551,18.57227 21.54409,18.57227 l 322.29101,0 c 10.28857,0 17.24676,-8.2837 15.60045,-18.57227 l -29.60249,-185 c -1.64631,-10.28857 -11.2552,-18.57031 -21.54377,-18.57031 l -175,0 -0.11438,-0.71485 c -1.64632,-10.28857 -11.25552,-18.57226 -21.54409,-18.57226 l -90.86329,0 z" id="path4395" clip-path="url(#clipPath4431)" transform="matrix(1.5412333,0,0,1.5422332,-81.802037,-120.13548)"/> <path id="path4173" d="m 127.22528,584.93735 c -15.85709,0 -26.57826,12.77538 -24.0409,28.64276 l 0.17629,1.10246 -29.722917,0 c -15.857107,0 -26.58178,12.77238 -24.044432,28.63975 L 95.21767,928.63546 c 2.53735,15.86737 17.34737,28.64277 33.20447,28.64277 l 496.72563,0 c 15.85708,0 26.58128,-12.7754 24.04393,-28.64277 L 603.56736,643.32232 c -2.53735,-15.86737 -17.34689,-28.63975 -33.20398,-28.63975 l -269.71582,0 -0.17629,-1.10246 c -2.53736,-15.86738 -17.34738,-28.64276 -33.20447,-28.64276 l -140.04152,0 z" style="opacity:1;fill:url(#linearGradient4179);fill-opacity:1"/> <path style="color:#000000;font-style:normal;font-variant:normal;font-weight:normal;font-stretch:normal;font-size:medium;line-height:normal;font-family:sans-serif;text-indent:0;text-align:start;text-decoration:none;text-decoration-line:none;text-decoration-style:solid;text-decoration-color:#000000;letter-spacing:normal;word-spacing:normal;text-transform:none;direction:ltr;block-progression:tb;writing-mode:lr-tb;baseline-shift:baseline;text-anchor:start;white-space:normal;clip-rule:nonzero;display:inline;overflow:visible;visibility:visible;opacity:1;isolation:auto;mix-blend-mode:normal;color-interpolation:sRGB;color-interpolation-filters:linearRGB;solid-color:#000000;solid-opacity:1;fill:#ffdd55;fill-opacity:1;fill-rule:nonzero;stroke:none;stroke-width:1.9000001;stroke-linecap:butt;stroke-linejoin:miter;stroke-miterlimit:4;stroke-dasharray:none;stroke-dashoffset:0;stroke-opacity:1;color-rendering:auto;image-rendering:auto;shape-rendering:auto;text-rendering:auto;enable-background:accumulate" d="m 127.22461,583.98828 c -16.36734,0 -27.594318,13.38428 -24.97852,29.74219 l 0,0.002 -28.607418,0 c -16.367236,0 -27.600183,13.38222 -24.984375,29.74024 l 45.625,285.3125 c 2.615811,16.35803 17.775233,29.44336 34.142583,29.44336 l 496.72656,0 c 16.36734,0 27.59627,-13.38416 24.98047,-29.74219 L 604.50586,643.17188 c -2.61581,-16.35802 -17.77537,-29.43946 -34.14258,-29.43946 l -268.90625,0 -0.0469,-0.30273 c -2.61582,-16.35803 -17.77524,-29.44141 -34.14258,-29.44141 l -140.04297,0 z m 0,1.89844 140.04297,0 c 15.34684,0 29.80672,12.46702 32.26562,27.84375 l 0.30469,1.90234 270.52539,0 c 15.34695,0 29.80674,12.46313 32.26563,27.83985 l 45.625,285.3125 c 2.45888,15.37673 -7.75863,27.54296 -23.10547,27.54296 l -496.72656,0 c -15.34686,0 -29.806739,-12.46506 -32.26563,-27.84179 l -45.625,-285.31445 c -2.458888,-15.37673 7.760444,-27.53907 23.107422,-27.53907 l 30.835938,0 -0.35156,-2.20312 c -2.45892,-15.37685 7.75472,-27.54297 23.10156,-27.54297 z" id="path4175"/> <path style="opacity:0.3;fill:url(#radialGradient4453);fill-opacity:1;stroke:none" d="m 127.22528,584.93735 c -15.85709,0 -26.57826,12.77538 -24.0409,28.64276 l 0.17629,1.10246 -29.722917,0 c -15.857107,0 -26.58178,12.77238 -24.044432,28.63975 L 95.21767,928.63546 c 2.53735,15.86737 17.34737,28.64277 33.20447,28.64277 l 496.72563,0 c 15.85708,0 26.58128,-12.7754 24.04393,-28.64277 L 603.56736,643.32232 c -2.53735,-15.86737 -17.34689,-28.63975 -33.20398,-28.63975 l -269.71582,0 -0.17629,-1.10246 c -2.53736,-15.86738 -17.34738,-28.64276 -33.20447,-28.64276 l -140.04152,0 z" id="path4437"/> <rect transform="matrix(1,0,-0.10675763,0.99428507,0,0)" style="opacity:1;fill:url(#linearGradient4237);fill-opacity:1" id="rect4215" width="515.27051" height="344.56525" x="176.59631" y="96.662781" ry="18.416628" rx="18.571428"/> <path id="path4217" d="m 184.89941,95.163415 c -10.7538,0 -20.37383,8.600785 -21.51886,19.257425 l -32.8763,305.97514 c -1.14503,10.65664 6.62674,19.25743 17.38054,19.25743 l 478.63733,0 c 10.7538,0 20.37384,-8.60079 21.51887,-19.25743 l 32.8763,-305.97514 c 1.14502,-10.65664 -6.62674,-19.257425 -17.38054,-19.257425 l -478.63734,0 z m -0.20343,1.89331 478.63734,0 c 9.74357,0 16.71996,7.732815 15.68511,17.364115 l -32.8763,305.97514 c -1.03486,9.63131 -9.673,17.36412 -19.41657,17.36412 l -478.63734,0 c -9.74357,0 -16.71997,-7.73281 -15.68511,-17.36412 l 32.8763,-305.97514 c 1.03486,-9.6313 9.673,-17.364115 19.41657,-17.364115 z" style="color:#000000;font-style:normal;font-variant:normal;font-weight:normal;font-stretch:normal;font-size:medium;line-height:normal;font-family:sans-serif;text-indent:0;text-align:start;text-decoration:none;text-decoration-line:none;text-decoration-style:solid;text-decoration-color:#000000;letter-spacing:normal;word-spacing:normal;text-transform:none;direction:ltr;block-progression:tb;writing-mode:lr-tb;baseline-shift:baseline;text-anchor:start;white-space:normal;clip-rule:nonzero;display:inline;overflow:visible;visibility:visible;opacity:1;isolation:auto;mix-blend-mode:normal;color-interpolation:sRGB;color-interpolation-filters:linearRGB;solid-color:#000000;solid-opacity:1;fill:#aa8800;fill-opacity:1;fill-rule:nonzero;stroke:none;stroke-width:1.9055028;stroke-linecap:butt;stroke-linejoin:miter;stroke-miterlimit:4;stroke-dasharray:none;stroke-dashoffset:0;stroke-opacity:1;color-rendering:auto;image-rendering:auto;shape-rendering:auto;text-rendering:auto;enable-background:accumulate"/> <path style="opacity:1;fill:url(#linearGradient4245);fill-opacity:1" d="m 127.22528,66.365925 c -15.85709,0 -26.57826,12.77538 -24.0409,28.64276 l 0.17629,1.10246 -29.722917,0 c -15.857107,0 -26.58178,12.772375 -24.044432,28.639745 L 95.21767,410.06403 c 2.53735,15.86737 17.34737,28.64277 33.20447,28.64277 l 496.72563,0 c 15.85708,0 26.58128,-12.7754 24.04393,-28.64277 L 603.56736,124.75089 C 601.03001,108.88352 586.22047,96.111145 570.36338,96.111145 l -269.71582,0 -0.17629,-1.10246 c -2.53736,-15.86738 -17.34738,-28.64276 -33.20447,-28.64276 l -140.04152,0 z" id="path4231"/> <path id="path4233" d="m 127.22461,65.416855 c -16.36734,0 -27.594318,13.38428 -24.97852,29.74219 l 0,0.002 -28.607418,0 c -16.367236,0 -27.600183,13.382215 -24.984375,29.740235 l 45.625,285.3125 c 2.615811,16.35803 17.775233,29.44336 34.142583,29.44336 l 496.72656,0 c 16.36734,0 27.59627,-13.38416 24.98047,-29.74219 L 604.50586,124.60045 C 601.89005,108.24243 586.73049,95.160995 570.36328,95.160995 l -268.90625,0 -0.0469,-0.30273 c -2.61582,-16.35803 -17.77524,-29.44141 -34.14258,-29.44141 l -140.04297,0 z m 0,1.89844 140.04297,0 c 15.34684,0 29.80672,12.46702 32.26562,27.84375 l 0.30469,1.90234 270.52539,0 c 15.34695,0 29.80674,12.463125 32.26563,27.839845 l 45.625,285.3125 c 2.45888,15.37673 -7.75863,27.54296 -23.10547,27.54296 l -496.72656,0 c -15.34686,0 -29.806739,-12.46506 -32.26563,-27.84179 L 50.53125,124.60045 C 48.072362,109.22372 58.291694,97.061385 73.638672,97.061385 l 30.835938,0 -0.35156,-2.20312 c -2.45892,-15.37685 7.75472,-27.54297 23.10156,-27.54297 z" style="color:#000000;font-style:normal;font-variant:normal;font-weight:normal;font-stretch:normal;font-size:medium;line-height:normal;font-family:sans-serif;text-indent:0;text-align:start;text-decoration:none;text-decoration-line:none;text-decoration-style:solid;text-decoration-color:#000000;letter-spacing:normal;word-spacing:normal;text-transform:none;direction:ltr;block-progression:tb;writing-mode:lr-tb;baseline-shift:baseline;text-anchor:start;white-space:normal;clip-rule:nonzero;display:inline;overflow:visible;visibility:visible;opacity:1;isolation:auto;mix-blend-mode:normal;color-interpolation:sRGB;color-interpolation-filters:linearRGB;solid-color:#000000;solid-opacity:1;fill:#ffdd55;fill-opacity:1;fill-rule:nonzero;stroke:none;stroke-width:1.9000001;stroke-linecap:butt;stroke-linejoin:miter;stroke-miterlimit:4;stroke-dasharray:none;stroke-dashoffset:0;stroke-opacity:1;color-rendering:auto;image-rendering:auto;shape-rendering:auto;text-rendering:auto;enable-background:accumulate"/> <path id="path4235" d="m 127.22528,66.365925 c -15.85709,0 -26.57826,12.77538 -24.0409,28.64276 l 0.17629,1.10246 -29.722917,0 c -15.857107,0 -26.58178,12.772375 -24.044432,28.639745 L 95.21767,410.06403 c 2.53735,15.86737 17.34737,28.64277 33.20447,28.64277 l 496.72563,0 c 15.85708,0 26.58128,-12.7754 24.04393,-28.64277 L 603.56736,124.75089 C 601.03001,108.88352 586.22047,96.111145 570.36338,96.111145 l -269.71582,0 -0.17629,-1.10246 c -2.53736,-15.86738 -17.34738,-28.64276 -33.20447,-28.64276 l -140.04152,0 z" style="opacity:0.3;fill:url(#radialGradient4247);fill-opacity:1;stroke:none"/> </g> </svg>