<?xml version="1.0" encoding="UTF-8"?>
<svg viewBox="0 0 48 48" xmlns="http://www.w3.org/2000/svg" xmlns:xlink="http://www.w3.org/1999/xlink">
 <defs>
  <linearGradient id="b">
   <stop stop-color="#fff" offset="0"/>
   <stop stop-color="#fff" stop-opacity="0" offset="1"/>
  </linearGradient>
  <linearGradient id="a">
   <stop offset="0"/>
   <stop stop-opacity="0" offset="1"/>
  </linearGradient>
  <linearGradient id="l" x1="4.1914" x2="47.32" y1="11.113" y2="56.052" gradientUnits="userSpaceOnUse">
   <stop stop-color="#d4d4d4" offset="0"/>
   <stop stop-color="#e2e2e2" offset=".3982"/>
   <stop stop-color="#fff" offset="1"/>
  </linearGradient>
  <linearGradient id="c" x2="0" y1="16.525" y2="13.285" gradientUnits="userSpaceOnUse">
   <stop stop-color="#fff" offset="0"/>
   <stop stop-color="#e7e6ae" offset="1"/>
  </linearGradient>
  <linearGradient id="k" x1="4.2523" x2="33.776" gradientUnits="userSpaceOnUse">
   <stop stop-color="#7e807a" offset="0"/>
   <stop stop-color="#babbb8" offset=".25"/>
   <stop stop-color="#a5a6a3" offset=".5"/>
   <stop stop-color="#333432" offset="1"/>
  </linearGradient>
  <linearGradient id="j" x1="20.014" x2="20.157" y1="15.9" y2="19.472" gradientUnits="userSpaceOnUse">
   <stop stop-color="#7d4b01" offset="0"/>
   <stop stop-color="#535353" offset="1"/>
  </linearGradient>
  <linearGradient id="i" x1="5.0653" x2="32.963" gradientUnits="userSpaceOnUse">
   <stop stop-color="#f79403" offset="0"/>
   <stop stop-color="#fdb343" offset=".18692"/>
   <stop stop-color="#fdb74f" offset=".43008"/>
   <stop stop-color="#8f5601" offset="1"/>
  </linearGradient>
  <linearGradient id="h" x1="12.109" x2="32.919" y1="8.0476" y2="50.619" gradientUnits="userSpaceOnUse" xlink:href="#b"/>
  <linearGradient id="g" x1="10.878" x2="10.592" y1="16.186" y2="26.686" gradientUnits="userSpaceOnUse" xlink:href="#b"/>
  <radialGradient id="d" cx="23.857" cy="40" r="17.143" gradientTransform="matrix(1 0 0 .5 -8.9596e-15 20)" gradientUnits="userSpaceOnUse" xlink:href="#a"/>
  <radialGradient id="f" cx="23.857" cy="40" r="17.143" gradientTransform="matrix(1 0 0 .5 1.6162e-14 20)" gradientUnits="userSpaceOnUse" xlink:href="#a"/>
  <radialGradient id="e" cx="23.857" cy="40" r="17.143" gradientTransform="matrix(1 0 0 .5 -1.328e-15 20)" gradientUnits="userSpaceOnUse" xlink:href="#a"/>
 </defs>
 <path transform="matrix(1.0279 0 0 1.1513 -4.9016 -14.52)" d="m41 40a17.143 8.5714 0 1 1 -34.286 0 17.143 8.5714 0 1 1 34.286 0z" display="block" fill="url(#d)"/>
 <g transform="matrix(1.0085 0 0 .98294 -.17202 .59247)">
  <path d="m18.887 2.9493c-7.8594 0-14.25 2.8025-14.25 6.25v23.125c0 3.4475 6.3906 6.25 14.25 6.25s14.504-2.8025 14.504-6.25v-23.125c0-3.4475-6.645-6.25-14.504-6.25z" display="block" fill="url(#k)" stroke="url(#j)" stroke-miterlimit="10" stroke-width="1.0044"/>
  <path d="m18.891 3.2058c-7.6252 0-13.825 2.719-13.825 6.0637v6.5578c0 3.3447 6.2001 5.6479 13.825 5.6479s14.072-2.3032 14.072-5.6479v-6.5578c0-3.3447-6.447-6.0637-14.072-6.0637z" display="block" fill="url(#i)"/>
  <path d="m18.895 3.7286c-7.3278 0-13.286 2.6129-13.286 5.8272v22.126c0 3.2143 5.9583 5.8272 13.286 5.8272s13.523-2.6129 13.523-5.8272v-22.126c0-3.2143-6.1955-5.8272-13.523-5.8272z" display="block" fill="none" opacity=".5443" stroke="url(#h)" stroke-miterlimit="10" stroke-width="1.0044"/>
  <path transform="matrix(1.0373 0 0 .95462 -5.9457 -4.3184)" d="m36.857 14.071a12.857 5.5 0 1 1 -25.714 0 12.857 5.5 0 1 1 25.714 0z" display="block" fill="#fed496" stroke="url(#c)" stroke-miterlimit="10" stroke-width="1.0093"/>
  <path d="m8.5921 13.757 0.35714 16.786 4.5714 1.2857-0.14286-16.714s2.0714 0 5.4286-0.21429c-5.2157-0.23307-11.183-2.4747-13.214-3.9286 1.4169 2.0922 3 2.7857 3 2.7857z" display="block" fill="url(#g)" opacity=".49367"/>
 </g>
 <path transform="matrix(.36343 0 0 .36343 10.422 -7.3612)" d="m41 40a17.143 8.5714 0 1 1 -34.286 0 17.143 8.5714 0 1 1 34.286 0z" display="block" fill="url(#e)" opacity=".65823"/>
 <path transform="matrix(.99539 0 0 1.0318 .3721 .70658)" d="m18.839 2.2227c-2.0028 0-4.6313 0.71415-4.6313 1.5927v2.6297c0 0.87852 2.6285 1.5927 4.6313 1.5927s4.4104-0.71415 4.4104-1.5927v-2.6297c0-0.87852-2.4076-1.5927-4.4104-1.5927z" display="block" fill="#fcaf3e" stroke="#b46c02" stroke-miterlimit="10" stroke-width=".98674"/>
 <path transform="matrix(.27072 0 0 .22351 12.535 1.9108)" d="m36.857 14.071a12.857 5.5 0 1 1 -25.714 0 12.857 5.5 0 1 1 25.714 0z" display="block" fill="#fed496" stroke="url(#c)" stroke-miterlimit="10" stroke-width="4.0652"/>
 <path transform="matrix(.68333 0 0 .32398 17.58 30.818)" d="m41 40a17.143 8.5714 0 1 1 -34.286 0 17.143 8.5714 0 1 1 34.286 0z" display="block" fill="url(#f)" opacity=".5"/>
 <path transform="matrix(1.0056 0 0 .97355 12.745 5.0016)" d="m33.38614,38.07159-10.87499-20.24998c-.3125-.5625-.875-.875-1.5-.875s-1.1875.375-1.5.9375l-10.62499,20.24998c-.25.5-.25,1.1875.0625,1.6875s.8125.75 1.4375.75h21.49998c.625,0 1.1875-.3125 1.4375-.8125 .3125-.5.3125-1.125.0625-1.6875z" fill="#c00" stroke="#510000" stroke-width="1.0107"/>
 <g transform="matrix(.6285 0 0 .60847 18.786 18.651)" stroke="#000">
  <path d="m9.5,37.6c-.3.5 0,.9.5.9h28.2c.5,0 .8-.4.5-.9l-14.3-26.6c-.3-.5-.7-.5-.9,0l-14,26.6z" fill="url(#l)" stroke="none"/>
 </g>
 <g transform="matrix(.54354 0 0 .54989 21.009 19.925)" stroke="#000">
  <path d="m23.9,36.5c-1.3,0-2.3-1-2.3-2.3 0-1.4.9-2.3 2.3-2.3s2.2.9 2.3,2.3c0,1.3-.9,2.3-2.3,2.3zm-1.4-5.9-.6-11.5h4l-.6,11.5h-2.9 .1z" stroke="none"/>
 </g>
</svg>
