<?xml version="1.0" encoding="UTF-8"?>
<svg viewBox="0 0 437.5 437.5" xmlns="http://www.w3.org/2000/svg" xmlns:xlink="http://www.w3.org/1999/xlink">
 <defs>
  <linearGradient id="a">
   <stop stop-opacity=".6784" offset="0"/>
   <stop stop-opacity=".2078" offset="1"/>
  </linearGradient>
  <linearGradient id="b">
   <stop stop-color="#faff00" offset="0"/>
   <stop stop-color="#026d00" offset="1"/>
  </linearGradient>
  <linearGradient id="k" x1=".26291" x2=".52113" y1=".38282" y2=".75">
   <stop stop-color="#fff" stop-opacity=".6784" offset="0"/>
   <stop stop-color="#fff" stop-opacity=".2078" offset="1"/>
  </linearGradient>
  <linearGradient id="j" x1=".83607" x2=".065574" y1=".67969" y2=".0625">
   <stop stop-color="#005207" offset="0"/>
   <stop stop-color="#75c500" offset="1"/>
  </linearGradient>
  <linearGradient id="i" x1="8.5284e-8" xlink:href="#b"/>
  <linearGradient id="h" x1=".30769" x2=".53846" y1=".24219" y2=".64844" xlink:href="#b"/>
  <linearGradient id="g" x1=".16924" x2=".70256" y1=".35157" y2=".71875" xlink:href="#a"/>
  <linearGradient id="f" x1=".64128" x2=".23492" y1=".61717" y2=".35156" xlink:href="#a"/>
  <linearGradient id="e" x1="-6.4553e-9" xlink:href="#b"/>
  <linearGradient id="c" xlink:href="#a"/>
  <linearGradient id="d" x1=".37449" x2=".58848" y1=".41406" y2=".61719" xlink:href="#a"/>
 </defs>
 <path d="m51.726 274.36c21.884 13.926 108.22 50.761 131.3 73.61 13.083 0 119.84-68.098 123.35-73.61-9.1019-5.4611-44.398-61.376-53.715-55.705-10.887 9.1435-227.8-31.988-240.72-43.768 15.291 35.072 25.908 60.431 39.789 99.473z" fill="url(#c)" fill-rule="evenodd"/>
 <path d="m437.68 359.91c10.19 11.397-89.878 61.029-131.3 69.631-23.271-2.8965-49.751-13.468-51.726-31.831 17.505-7.8148 98.289-61.119 113.4-65.652 29.507 0.4633 67.346 7.3083 69.631 27.852z" fill="url(#d)" fill-rule="evenodd"/>
 <path d="m311.35 246.51c22.094 14.753 47.506 35.661 67.642 46.752 15.916 6.9631 44.763-17.617 43.768-31.831-8.6384-7.3658-21.789-17.845-46.752-28.847-12.524 19.639-42.278 20.666-64.657 13.926z" fill="url(#c)" fill-rule="evenodd"/>
 <path d="m257.66 224.48c1.1152-23.596-19.746-114.85-8.7446-143.38-4.8779 1.2192-73.659 40.926-87.25 48.981 0.7398 16.373 5.5079 145.27 5.5079 154.19 16.312-3.722 79.14-42.936 90.487-59.786z" fill="url(#j)" fill-rule="evenodd" stroke="#004c00" stroke-linejoin="bevel" stroke-width="6.9909"/>
 <path d="m297.26 103.52c-1.3666 14.015 4.4511 113.84 5.5639 130.41 2.4545 8.5238 25.567 25.449 40.169 24.044 11.829-0.3378 29.845-5.8005 36.593-20.127 3.0508-8.1745-4.1732-120.95-2.6075-129.82-8.5982 11.561-21.254 14.577-38.292 13.811-17.605 0.1044-37.993-9.4939-41.426-18.324z" fill="url(#i)" fill-rule="evenodd" stroke="#007f00" stroke-linejoin="bevel" stroke-width="6.9909"/>
 <path d="m355.12 89.17c-1.0491-0.5244 0.3264-7.69-17.373-6.1025-11.68-0.8689-14.837 1.0318-16.412 5.1871-9.3646 1.9303-18.26 6.6717-24.171 14.822 2.6236 8.1529 26.244 18.761 41.489 18.768 8.3931 0 38.3-3.9402 38.42-15.177-1.1763-6.664-15.026-12.881-21.952-17.498z" fill="#8b8db5" fill-rule="evenodd" stroke="#0000af" stroke-linejoin="bevel" stroke-width="1.3982"/>
 <path d="m341.624,160.659 7.2131-.59c2.0388,0 7.371-.9424 8.0802-1.2967 1.3297-.6376 2.1275-1.0077 2.1275-3.0464 0-1.1337-.7092-2.1964-1.8616-2.9049-.8864-.4959-5.8641.163-8.6242.4411l-6.935.3119v-11.6193c0-1.842-.0887-2.338-.6205-2.9756-.7978-1.0627-2.3048-1.7004-3.8117-1.7004-1.4184,0-2.748.496-3.5458,1.4878-.7092.6377-.8865,1.3462-.8865,3.1882v11.6193l-8.063-.59c-2.2161,0-6.663-1.3058-7.4608-.8807-1.3296.6377-2.1274,1.8421-2.1274,3.0465 0,1.1336.7091,2.1964 1.8615,2.9049 .7978.4959 5.5993,2.0143 7.7267,2.0143l8.063.59v11.6192c0,1.6296.1773,2.338.6206,2.9757 .7977,1.0627 2.3047,1.7004 3.8117,1.7004 1.4183,0 2.7479-.5668 3.6344-1.4879 .6205-.7085.7978-1.2752.7978-3.1882v-11.6192z"/>
 <path d="m327.48 86.838c1.5736 3.9116 7.8974 5.4936 10.229 5.8999 3.0916 0.3775 10.42 0.3929 12.59 2.36 2 4.4584 1.6979 7.98-1.1803 8.6532-12.695 2.9127-20.633-2.2819-22.818-2.3598-5.4154-1.4304-7.576-7.9945-6.2948-8.2601 4.2378-0.3406 4.0569-6.2184 7.4751-6.2932z" fill="#fff" fill-opacity=".8316" fill-rule="evenodd"/>
 <path d="m285.85 401.42c17.804-9.3975 83.494-39.764 99.037-51.176 15.275-18.491 11.845-48.319-1.1688-60.48-11.145-12.826-35.998-13.566-51.132-15.17-19.446 7.3986-64.02 34.549-82.345 44.5-26.731 9.8877-27.257 47.975-3.3941 76.572 11.555 6.2293 20.515 8.0858 39.003 5.7534z" fill="url(#h)" fill-rule="evenodd" stroke="#007a00" stroke-width="6.9909"/>
 <path d="m264.97 397.62c20.989 3.9223 39.79-16.624 41.364-37.174 0.43-20.212-18.036-39.328-36.912-40.702-16.011-0.5344-35.429 6.2362-35.856 28.274-2.3845 24.18 13.328 48.059 31.404 49.602z" fill="#7879e0" fill-rule="evenodd"/>
 <path d="m295.02 320.85c10.402 5.7812 19.746 22.76 26.897 37.174 15.009-6.1002 52.242-25.368 67.227-32.589-3.7-41.722-41.928-43.855-54.144-43.646-8.6212 4.72-46.664 21.406-67.812 30.757 8.6072 0.8125 18.614 1.2767 27.831 8.3044z" fill="url(#k)" fill-rule="evenodd"/>
 <path d="m263.48 375.94c3.1775-2.1785 17.685 3.8318 18.884-14.16-0.49-15.05-25.158-23.609-25.775-28.28-1.288-6.7606 15.315-8.1162 24.853-3.1465 8.3684 4.8573 13.646 21.892 12.859 29.758 0 7.8667-4.7477 21.898-15.085 22.909-11.674 0.5141-18.615-4.149-15.737-7.0799z" fill="#fff" fill-opacity=".7194" fill-rule="evenodd"/>
 <path d="m260.73 370.04c2.4541 2.1297 11.243-1.1143 13.865-4.748 4.0034-5.1421-4.5472-14.606-9.1721-16.155-2.8614-0.4474 5.1338 7.2563 2.7819 13.429-4.3124 2.2002-11.634 4.9783-7.4749 7.4732z" fill="#fff" fill-opacity=".7449" fill-rule="evenodd"/>
 <path d="m256.0068,356.6631c.4752-1.0902 4.0257-7.0551.3935-7.4734-1.1996-.5891-7.8069,3.0439-8.6554,6.2934-.474,3.8331 2.6897,9.0681 10.2291,9.0466 .585-1.9496-1.5628-6.7345-1.9672-7.8666z" fill="#fff" fill-opacity=".7451" fill-rule="evenodd"/>
 <path d="m157.95 129.45c-1.0331 0.4518-134.78-69.757-148-82.326 2.2714 30.47 2.7284 103.96 4.4511 133.5 45.004 34.895 118.95 60.596 152.85 103.58 3.6859-26.784-8.3339-136.05-9.3067-154.76z" fill="url(#e)" fill-rule="evenodd" stroke="#004c00" stroke-linejoin="bevel" stroke-width="6.9909"/>
 <path d="m82.277 11.758c-21.614 7.7876-45.624 27.146-71.217 34.488 27.803 14.655 121.97 67.157 151.34 81.213 17.097-9.9921 73.742-42.465 87.909-45.613-94.137-21.818-156.54-56.74-168.03-70.088z" fill="#dfc975" fill-rule="evenodd" stroke="#060" stroke-linejoin="bevel" stroke-width="6.9909"/>
 <path d="m185.28 110.09c-6.3834-2.2845-55.134-14.407-57.773-16.668-3.8503-3.2912-1.9294-6.9172-1.0097-8.5782 2.7189-1.5945 6.9498-3.8268 10.463-3.2924 4.6785-1.2524 48.573 7.8671 58.735 11.646-2.8068 5.5967-4.9955 9.1561-10.415 16.893z" fill="url(#f)" fill-rule="evenodd"/>
 <path d="m181.89 110.69c-6.0987-6.0441-55.463-46.664-57.294-50.532-2.6775-5.6364 1.4154-8.3062 3.3356-9.5062 3.9414-0.09731 9.9443 0.01025 13.679 2.5842 6.0015 1.3843 51.387 36.089 61.022 45.859-6.1363 4.2113-10.5 6.658-20.742 11.595z" fill="#ff9e00" fill-rule="evenodd" stroke="#630023" stroke-width="2.7964"/>
 <path d="m65.573 29.703c2.5421 4.5305 29.5 21.923 29.517 24.901 0.0304 4.3378-4.1233 6.5932-6.053 7.6101-3.1 0.22424-7.7281 0.36441-9.6948-1.5222-4.1624-0.86518-29.778-18.748-33.714-26.08 6.6682-1.7467 10.001-3.3194 19.945-4.9086z" fill="url(#g)" fill-rule="evenodd"/>
 <path d="m63.665 24.754c3.7732 3.5713 34.682 12.175 35.582 15.013 1.3177 4.133-1.9787 7.52-3.5192 9.064-2.8934 1.1346-7.2711 2.6426-9.7095 1.425-4.2316 0.40974-34.003-9.0608-39.94-14.893 5.8485-3.6478 8.5638-6.1392 17.587-10.609z" fill="#ff9e00" fill-rule="evenodd" stroke="#5b0000" stroke-width="2.7964"/>
 <path d="m124.4736,169.5396 11.927,5.5157c1.9457.8997 2.9607,1.2159 3.6375,1.1459 1.2686-.1028 2.03-1.053 2.03-2.3555 0-1.2256-.6768-2.6877-1.7763-3.9624-.846-.9274-1.5226-1.3936-3.8912-2.4888l-11.927-5.5157v-12.5638c0-1.9918-.0846-2.5672-.5923-3.4914-.7612-1.5012-2.1993-2.8557-3.6373-3.5207-1.3534-.6259-2.6223-.6763-3.3835.044-.6768.3766-.846,1.0644-.846,3.0563v12.5638l-12.0117-5.5547c-2.1147-.978-2.7915-1.2144-3.5528-1.1067-1.26877.1027-2.02997,1.053-2.02997,2.3554 0,1.2258.6767,2.6878 1.77627,3.9624 .7613.8884 1.7764,1.511 3.8065,2.4498l12.0117,5.5548v12.5639c0,1.7618.1692,2.6061.5923,3.4913 .7612,1.5011 2.1993,2.8556 3.6372,3.5206 1.3535.6259 2.6224.5998 3.4682-.0049 .5922-.4922.7614-1.0269.7614-3.0954v-12.5639z"/>
 <path d="m59.666 130.89c1.1256 0.5478 2.7276-1.3117 4.8061-5.579 1.93-3.9624 2.4065-6.37 1.281-6.918l-25.075-12.208c-1.1881-0.5783-2.7901 1.2813-4.7201 5.2437-2.0785 4.2672-2.555 6.6748-1.3669 7.2532l25.075 12.208z"/>
</svg>
